<svg xmlns="http://www.w3.org/2000/svg" viewBox="0 0 800 800"><defs><style>.cls-1{fill:#193e63;}.cls-2{fill:#fff;}</style></defs><title>icon</title><g id="_1._GlayWorld" data-name="1. GlayWorld"><rect class="cls-1" x="-32.979" y="-34.864" width="864.448" height="864.448"/></g><g id="_6._諦めと戒め" data-name="6. 諦めと戒め"><path class="cls-2" d="M515.359,338.2a122.546,122.546,0,0,1-232.187-.031,190.348,190.348,0,0,0-74.6,151.266c0,105.305,85.367,190.673,190.673,190.673s190.673-85.367,190.673-190.673A190.347,190.347,0,0,0,515.359,338.2Z"/><path class="cls-2" d="M515.359,338.2A122.654,122.654,0,0,0,458.6,191.8a61.349,61.349,0,0,1-118.661,0,122.653,122.653,0,0,0-56.768,146.368,190.654,190.654,0,0,1,232.187.031Z"/><path class="cls-2" d="M458.6,191.8a61.337,61.337,0,1,0-118.661,0,122.611,122.611,0,0,1,118.661,0Z"/></g></svg>