<?xml version="1.0" encoding="utf-8"?>
<!-- Generator: Adobe Illustrator 21.0.0, SVG Export Plug-In . SVG Version: 6.00 Build 0)  -->
<svg version="1.1" id="レイヤー_1" xmlns="http://www.w3.org/2000/svg" xmlns:xlink="http://www.w3.org/1999/xlink" x="0px"
	 y="0px" viewBox="0 0 800 800" style="enable-background:new 0 0 800 800; fill:#FFFFFF;" xml:space="preserve">
<title>icon</title>
<g id="_7._必要悪">

		<rect x="119.4" y="318.5" transform="matrix(1 -1.989670e-03 1.989670e-03 1 -0.7963 0.4013)" class="st0" width="163.8" height="163.8"/>

		<rect x="320.3" y="318.1" transform="matrix(1 -1.989670e-03 1.989670e-03 1 -0.7951 0.8011)" class="st0" width="163.8" height="163.8"/>

		<rect x="521.2" y="317.7" transform="matrix(1 -1.989670e-03 1.989670e-03 1 -0.7939 1.2008)" class="st0" width="163.8" height="163.8"/>

		<rect x="119.2" y="243.3" transform="matrix(1 -1.989670e-03 1.989670e-03 1 -0.5195 0.8003)" class="st0" width="565.6" height="36.4"/>

		<rect x="119.7" y="520.3" transform="matrix(1 -1.999996e-03 1.999996e-03 1 -1.0762 0.8061)" class="st0" width="565.6" height="36.4"/>
</g>
</svg>
