<?xml version="1.0" encoding="utf-8"?>
<!-- Generator: Adobe Illustrator 21.1.0, SVG Export Plug-In . SVG Version: 6.00 Build 0)  -->
<svg version="1.1" id="レイヤー_1" xmlns="http://www.w3.org/2000/svg" xmlns:xlink="http://www.w3.org/1999/xlink" x="0px"
	 y="0px" viewBox="0 0 800 800" style="enable-background:new 0 0 800 800;" xml:space="preserve">
<style type="text/css">
	.st0{fill:#8B9299;}
	.st1{fill:#FFFFFF;}
</style>
<title>icon</title>
<path class="st0" d="M0,0h800v800H0V0z"/>
<g>
	<path class="st1" d="M399.8,145.9c139.9,0.2,253.1,113.7,252.9,253.6c-0.2,139.9-113.7,253.1-253.6,252.9
		C259.2,652.2,146,538.6,146.2,398.8c0.1-101.6,61.1-193.4,154.7-232.9C332.2,152.6,365.8,145.8,399.8,145.9 M399.8,117.6
		c-156,0-282.4,126.4-282.4,282.4s126.4,282.4,282.4,282.4S682.2,556,682.2,400S555.7,117.6,399.8,117.6L399.8,117.6z"/>
	<path class="st1" d="M342,520.1c-50.4,5.1-85.6,16.8-85.6,30.3c0,18.3,64.1,33.1,143.3,33.1s143.3-14.8,143.3-33.1
		c0-13.5-35.1-25.1-85.4-30.3L399.8,549L342,520.1z M565.4,300l-165.6-83l-165.6,83v166L342,520c38.4-3.7,77.1-3.7,115.5,0
		L565.4,466V300z"/>
</g>
</svg>
