<svg xmlns="http://www.w3.org/2000/svg" viewBox="0 0 800 800"><defs><style>.cls-1{fill:#8b9299}.cls-2{fill:#fff}</style></defs><title>icon</title><path class="cls-1" d="M-43.863-30.774h876.088v876.088H-43.863z" id="_1._GlayWorld" data-name="1. GlayWorld"/><g id="_11._SilverWorld_third_winter_remaster_" data-name="11. SilverWorld &lt;third winter remaster&gt;"><path class="cls-2" d="M399.782 145.878a253.238 253.238 0 1 1-98.907 19.959 252.506 252.506 0 0 1 98.907-19.959m0-28.275c-155.963 0-282.4 126.433-282.4 282.4s126.434 282.4 282.4 282.4 282.4-126.433 282.4-282.4-126.433-282.4-282.4-282.4z"/><path class="cls-2" d="M342.012 520.054c-50.412 5.124-85.616 16.759-85.616 30.3 0 18.272 64.141 33.085 143.262 33.085s143.262-14.813 143.262-33.085c0-13.518-35.108-25.14-85.411-30.274L399.782 549zM565.406 300l-165.624-83-165.625 83v166l107.855 54.05a596.817 596.817 0 0 1 115.5.021L565.406 466z"/></g></svg>