<svg xmlns="http://www.w3.org/2000/svg" viewBox="0 0 800 800"><defs><style>.cls-1{fill:#99826b}.cls-2{fill:#fff}</style></defs><title>icon</title><path class="cls-1" d="M-35.224-37.865h870.449v870.449H-35.224z" id="_1._GlayWorld" data-name="1. GlayWorld"/><path class="cls-2" d="M399.776 319.686a50.534 50.534 0 1 1-50.534 50.534 50.591 50.591 0 0 1 50.534-50.534m0-14.135a64.67 64.67 0 1 0 64.67 64.67 64.67 64.67 0 0 0-64.67-64.67zM220.615 134.082h358.098v67.143H220.615zm45.812 87.679h267.146v66.786H266.427zm105.958 230.887h55.006v97.788h-55.006zm246.17 227.062l63.46-110.121H116.95l63.46 110.121h438.145z" id="_2._Agorra" data-name="2. Agorra"/></svg>