<?xml version="1.0" encoding="utf-8"?>
<!-- Generator: Adobe Illustrator 21.0.0, SVG Export Plug-In . SVG Version: 6.00 Build 0)  -->
<svg version="1.1" id="レイヤー_1" xmlns="http://www.w3.org/2000/svg" xmlns:xlink="http://www.w3.org/1999/xlink" x="0px"
	 y="0px" viewBox="0 0 800 800" style="enable-background:new 0 0 800 800;" xml:space="preserve">
<style type="text/css">
	.st0{fill:#FFFFFF;}
</style>
<title>icon</title>
<path id="_6._諦めと戒め" class="st0" d="M515.4,338.2c-21.7,64.1-91.2,98.5-155.3,76.8c-36.2-12.2-64.6-40.7-76.8-76.9
	c-47.1,36.1-74.6,92-74.6,151.3c0,105.3,85.4,190.7,190.7,190.7s190.7-85.4,190.7-190.7C590,430.2,562.4,374.3,515.4,338.2z
	 M515.4,338.2c18.9-56.1-5-117.7-56.8-146.4c-8.6,32.8-42.2,52.3-74.9,43.7c-21.4-5.6-38.1-22.3-43.7-43.7
	c-51.8,28.7-75.6,90.3-56.8,146.4C351.6,285.6,446.9,285.6,515.4,338.2L515.4,338.2z M458.6,191.8c8.6-32.8-11-66.3-43.8-74.9
	s-66.3,11-74.9,43.8c-2.7,10.2-2.7,20.9,0,31.1C376.9,171.4,421.7,171.4,458.6,191.8z"/>
</svg>
