<svg xmlns="http://www.w3.org/2000/svg" viewBox="0 0 800 800"><defs><style>.cls-1{fill:none}.cls-2{fill:#5b5b66}.cls-3{fill:#fff}.cls-4{clip-path:url(#clip-path)}</style><clipPath id="clip-path"><path class="cls-1" d="M116.68 114.453h565.786v565.786H116.68z"/></clipPath></defs><title>icon</title><path class="cls-2" d="M-32.224-34.864h864.448v864.448H-32.224z" id="_1._GlayWorld" data-name="1. GlayWorld"/><g id="_5._0314_-nil_history-" data-name="5. @0314 -nil history-"><circle class="cls-3" cx="412.303" cy="217.709" r="90.526"/><circle class="cls-3" cx="412.657" cy="623.307" r="22.278"/><circle class="cls-3" cx="430.691" cy="531.721" r="40.312"/><g class="cls-4"><path class="cls-3" d="M390.379 345.011a58.694 58.694 0 0 0-52.057 85.818l83.55-76.644a58.4 58.4 0 0 0-31.493-9.174zm-22.372 112.976a58.7 58.7 0 0 0 74.514-81.228zm74.514-81.228l240.3-261.952-260.949 239.378a58.948 58.948 0 0 1 20.649 22.574z"/><path class="cls-3" d="M338.322 430.829L92.273 656.54l48.814 48.814 226.92-247.367a58.9 58.9 0 0 1-29.685-27.158z"/></g></g></svg>