<?xml version="1.0" encoding="utf-8"?>
<!-- Generator: Adobe Illustrator 21.0.0, SVG Export Plug-In . SVG Version: 6.00 Build 0)  -->
<svg version="1.1" id="レイヤー_1" xmlns="http://www.w3.org/2000/svg" xmlns:xlink="http://www.w3.org/1999/xlink" x="0px"
	 y="0px" viewBox="0 0 800 800" style="enable-background:new 0 0 800 800; fill:#FFFFFF;" xml:space="preserve">
<title>icon</title>
<circle class="st0" cx="412.3" cy="217.7" r="90.5"/>
<circle class="st0" cx="412.7" cy="623.3" r="22.3"/>
<circle class="st0" cx="430.7" cy="531.7" r="40.3"/>
<path class="st0" d="M390.4,345c-32.4,0-58.7,26.3-58.7,58.7c0,9.4,2.3,18.8,6.6,27.1l83.6-76.6C412.5,348.2,401.5,345,390.4,345z"
	/>
<path class="st0" d="M368,458c30,12.4,64.3-1.9,76.6-31.9c6.6-16,5.8-34-2.1-49.3L368,458z"/>
<path class="st0" d="M442.5,376.8l240.3-262L421.9,354.2C430.6,359.8,437.7,367.5,442.5,376.8z"/>
<path class="st0" d="M338.3,430.8L116.7,634.2v46.1h47.4L368,458C355.2,452.7,344.7,443.1,338.3,430.8z"/>
</svg>
