<?xml version="1.0" encoding="utf-8"?>
<!-- Generator: Adobe Illustrator 21.0.0, SVG Export Plug-In . SVG Version: 6.00 Build 0)  -->
<svg version="1.1" id="レイヤー_1" xmlns="http://www.w3.org/2000/svg" xmlns:xlink="http://www.w3.org/1999/xlink" x="0px"
	 y="0px" viewBox="0 0 800 800" style="enable-background:new 0 0 800 800; fill:#FFFFFF;" xml:space="preserve">
<title>icon</title>
<g id="_2._Agorra">
	<path class="st0" d="M399.8,319.7c27.9,0,50.5,22.6,50.5,50.5s-22.6,50.5-50.5,50.5s-50.5-22.6-50.5-50.5l0,0
		C349.3,342.3,371.9,319.7,399.8,319.7 M399.8,305.6c-35.7,0-64.7,29-64.7,64.7s29,64.7,64.7,64.7s64.7-29,64.7-64.7
		S435.5,305.6,399.8,305.6L399.8,305.6z"/>
	<rect x="220.6" y="134.1" class="st0" width="358.1" height="67.1"/>
	<rect x="266.4" y="221.8" class="st0" width="267.1" height="66.8"/>
	<rect x="372.4" y="452.6" class="st0" width="55" height="97.8"/>
	<polygon class="st0" points="618.6,679.7 682,569.6 116.9,569.6 180.4,679.7 	"/>
</g>
</svg>
