<?xml version="1.0" encoding="utf-8"?>
<!-- Generator: Adobe Illustrator 21.0.0, SVG Export Plug-In . SVG Version: 6.00 Build 0)  -->
<svg version="1.1" id="レイヤー_1" xmlns="http://www.w3.org/2000/svg" xmlns:xlink="http://www.w3.org/1999/xlink" x="0px"
	 y="0px" viewBox="0 0 800 800" style="enable-background:new 0 0 800 800; fill:#FFFFFF;" xml:space="preserve">
<title>icon</title>
<g id="_8._SilverCluster">
	<path class="st0" d="M265.9,331.5L203,300.1v-66.1l62.9-31.3l62.9,31.3v66.1L265.9,331.5z M232.3,282.2l33.7,16.8l33.7-16.8V252
		l-33.7-16.8L232.3,252V282.2z"/>
	<path class="st0" d="M534.5,331.5l-62.9-31.3v-66.1l62.9-31.3l62.9,31.3v66.1L534.5,331.5z M500.8,282.2l33.7,16.8l33.7-16.8V252
		l-33.7-16.8L500.8,252L500.8,282.2z"/>
	<path class="st0" d="M265.9,597.7L203,566.3v-66.1l62.9-31.3l62.9,31.3v66.1L265.9,597.7z M232.3,548.4l33.7,16.8l33.7-16.8v-30.1
		l-33.7-16.8l-33.7,16.8V548.4z"/>
	<path class="st0" d="M682.8,191.3l-148.5-73.9L400,184.2l-134.3-66.9l-148.5,73.9v151.3L232.6,400l-115.4,57.5v151.3l148.5,73.9
		L400,615.8l134.3,66.9l148.5-73.9V457.5L567.4,400l115.4-57.5V191.3z M298.8,400L400,349.6L501.2,400L400,450.4L298.8,400z
		 M146.5,324.6V209.2l119.2-59.4L385,209.2v115.3l-118.8,59.2l-0.4-0.2l-0.4,0.2L146.5,324.6z M385,590.8l-119.2,59.4l-119.2-59.4
		V475.4l118.8-59.2l0.4,0.2l0.4-0.2L385,475.4L385,590.8z M653.5,475.4v115.3l-119.2,59.4L415,590.8V475.4l118.8-59.2l0.4,0.2
		l0.4-0.2L653.5,475.4z M653.5,324.6l-118.8,59.2l-0.4-0.2l-0.4,0.2L415,324.6V209.2l119.2-59.4l119.2,59.4L653.5,324.6z"/>
	<path class="st0" d="M534.5,597.7l-62.9-31.3v-66.1l62.9-31.3l62.9,31.3v66.1L534.5,597.7z M500.8,548.4l33.7,16.8l33.7-16.8v-30.1
		l-33.7-16.8l-33.7,16.8V548.4z"/>
</g>
</svg>
