<?xml version="1.0" encoding="utf-8"?>
<!-- Generator: Adobe Illustrator 21.0.0, SVG Export Plug-In . SVG Version: 6.00 Build 0)  -->
<svg version="1.1" id="レイヤー_1" xmlns="http://www.w3.org/2000/svg" xmlns:xlink="http://www.w3.org/1999/xlink" x="0px"
	 y="0px" viewBox="0 0 800 800" style="enable-background:new 0 0 800 800;" xml:space="preserve">
<style type="text/css">
	.st0{fill:#FFFFFF;}
</style>
<title>icon</title>
<path id="_2._Agorra" class="st0" d="M399.8,319.7c27.9,0,50.5,22.6,50.5,50.5s-22.6,50.5-50.5,50.5s-50.5-22.6-50.5-50.5l0,0
	C349.3,342.3,371.9,319.7,399.8,319.7 M399.8,305.6c-35.7,0-64.7,29-64.7,64.7s29,64.7,64.7,64.7s64.7-29,64.7-64.7
	S435.5,305.6,399.8,305.6L399.8,305.6z M220.6,134.1h358.1v67.1H220.6V134.1z M266.4,221.8h267.1v66.8H266.4V221.8z M372.4,452.6h55
	v97.8h-55V452.6z M618.6,679.7L682,569.6H116.9l63.5,110.1L618.6,679.7L618.6,679.7z"/>
</svg>
