<svg xmlns="http://www.w3.org/2000/svg" viewBox="0 0 800 800"><defs><style>.cls-1{fill:#6b8a99}.cls-2{fill:#fff}</style></defs><title>icon</title><path class="cls-1" d="M-44.284-30.774h876.088v876.088H-44.284z" id="_1._GlayWorld" data-name="1. GlayWorld"/><g id="_8._SilverCluster" data-name="8. SilverCluster"><path class="cls-2" d="M265.94 331.457L203 300.117v-66.063l62.939-31.34 62.938 31.34v66.063zm-33.656-49.3l33.656 16.759 33.66-16.763v-30.135l-33.66-16.759-33.656 16.759zm302.174 49.3l-62.938-31.34v-66.063l62.938-31.34 62.939 31.34v66.063zm-33.655-49.3l33.655 16.759 33.656-16.759v-30.139l-33.656-16.759-33.658 16.759zM265.94 597.664L203 566.323V500.26l62.939-31.34 62.938 31.34v66.063zm-33.656-49.3l33.656 16.759 33.66-16.763v-30.135l-33.66-16.759-33.656 16.759z"/><path class="cls-2" d="M682.758 191.26l-148.5-73.945L400 184.169l-134.259-66.854-148.5 73.945v151.273L232.648 400l-115.406 57.467v151.272l148.5 73.946L400 615.83l134.259 66.855 148.5-73.946V457.467L567.352 400l115.406-57.467zM298.834 400L400 349.624 501.166 400 400 450.376zm-152.31-75.431V209.224l119.217-59.364 119.216 59.364v115.345l-118.8 59.158-.414-.206-.414.206zm238.433 266.207L265.741 650.14l-119.217-59.364V475.43l118.8-59.157.414.206.414-.206 118.8 59.157zM653.476 475.43v115.346L534.259 650.14l-119.216-59.364V475.43l118.8-59.157.414.206.414-.206zm0-150.861l-118.8 59.158-.414-.206-.414.206-118.8-59.158V209.224l119.211-59.364 119.216 59.364z"/><path class="cls-2" d="M534.458 597.664l-62.938-31.341V500.26l62.938-31.34 62.942 31.34v66.063zM500.8 548.36l33.655 16.759 33.656-16.759v-30.135l-33.656-16.759-33.655 16.759z"/></g></svg>