<?xml version="1.0" encoding="utf-8"?>
<!-- Generator: Adobe Illustrator 21.0.0, SVG Export Plug-In . SVG Version: 6.00 Build 0)  -->
<svg version="1.1" id="レイヤー_1" xmlns="http://www.w3.org/2000/svg" xmlns:xlink="http://www.w3.org/1999/xlink" x="0px"
	 y="0px" viewBox="0 0 166 166" style="enable-background:new 0 0 166 166; fill:#FFFFFF;" xml:space="preserve">
<style type="text/css">
</style>
<path class="st0" d="M151,121.1L85.5,83.3L151,45.4c0.5-0.3,0.6-0.9,0.4-1.4c-0.3-0.5-0.9-0.6-1.4-0.4L84.5,81.6V5.8
	c0-0.2-0.1-0.3-0.1-0.5c-0.1-0.5-0.5-0.8-1-0.8h-0.1c-0.2,0-0.4,0-0.5,0.1l-66.9,39c-0.5,0.3-0.6,0.9-0.4,1.4
	c0.1,0.3,0.4,0.4,0.6,0.5l65.3,37.8L16,121.1c-0.5,0.3-0.6,0.9-0.4,1.4c0.2,0.3,0.5,0.5,0.9,0.5c0.2,0,0.3,0,0.5-0.1L82.5,85v75.7
	c0,0.6,0.4,1,1,1c0.6,0,1-0.4,1-1V85l65.5,37.8c0.2,0.1,0.3,0.1,0.5,0.1c0.3,0,0.7-0.2,0.9-0.5C151.6,122,151.5,121.4,151,121.1z
	 M82.5,81.6L18.4,44.5L82.5,7.1V81.6z"/>
</svg>
